<svg width="30" height="22" viewBox="0 0 30 22" fill="none" xmlns="http://www.w3.org/2000/svg">
<path d="M28.5804 12.1885C28.8883 11.8787 29.0613 11.4585 29.0613 11.0203C29.0613 10.5821 28.8883 10.1619 28.5804 9.85206L19.2892 0.504457C19.1377 0.346637 18.9564 0.220753 18.7561 0.134153C18.5557 0.0475524 18.3402 0.00196895 18.1221 6.23885e-05C17.904 -0.00184417 17.6877 0.0399647 17.4859 0.123049C17.284 0.206133 17.1006 0.328828 16.9464 0.483976C16.7922 0.639124 16.6703 0.823617 16.5877 1.02669C16.5051 1.22976 16.4635 1.44735 16.4654 1.66675C16.4673 1.88616 16.5126 2.10299 16.5987 2.30458C16.6848 2.50618 16.8099 2.68852 16.9668 2.84095L23.4544 9.36791L1.70371 9.36791C1.26811 9.36791 0.850349 9.542 0.542336 9.85188C0.23432 10.1618 0.0612793 10.5821 0.0612793 11.0203C0.0612793 11.4585 0.23432 11.8788 0.542336 12.1887C0.850349 12.4986 1.26811 12.6727 1.70371 12.6727L23.4544 12.6727L16.9668 19.1997C16.6676 19.5113 16.5021 19.9287 16.5058 20.362C16.5095 20.7952 16.6823 21.2097 16.9868 21.516C17.2913 21.8224 17.7033 21.9962 18.1339 21.9999C18.5645 22.0037 18.9794 21.8372 19.2892 21.5362L28.5804 12.1885Z" fill="black"/>
</svg>
